<?xml version="1.0" standalone="no"?>
<!DOCTYPE svg PUBLIC "-//W3C//DTD SVG 20010904//EN"
 "http://www.w3.org/TR/2001/REC-SVG-20010904/DTD/svg10.dtd">
<svg version="1.0" xmlns="http://www.w3.org/2000/svg"
 width="200.000000pt" height="200.000000pt" viewBox="0 0 200.000000 200.000000"
 preserveAspectRatio="xMidYMid meet">
<metadata>
Created by potrace 1.14, written by Peter Selinger 2001-2017
</metadata>
<g transform="translate(0.000000,200.000000) scale(0.100000,-0.100000)"
fill="#000000" stroke="none">
<path d="M0 1000 l0 -1000 1000 0 1000 0 0 1000 0 1000 -1000 0 -1000 0 0
-1000z m1171 755 c237 -32 249 -34 249 -44 0 -5 -14 -11 -32 -15 -83 -16 -169
-48 -166 -60 2 -8 23 -29 48 -48 83 -62 127 -187 101 -284 -6 -22 -24 -61 -41
-85 -29 -44 -30 -46 -30 -181 l0 -138 -220 0 -220 0 0 49 0 48 -47 6 c-63 7
-103 49 -103 107 l0 40 -50 0 c-31 0 -50 4 -50 11 0 7 16 59 35 118 19 58 37
122 40 142 3 20 21 62 40 94 51 85 47 145 -10 145 -10 0 -11 -16 -7 -66 4 -61
3 -66 -14 -62 -17 3 -19 12 -17 71 l2 67 -59 17 c-33 9 -60 20 -60 24 0 4 39
13 88 19 48 7 139 21 202 30 63 10 120 18 126 19 6 0 93 -10 195 -24z m314
-1106 c49 -29 70 -74 70 -154 0 -92 -24 -141 -85 -173 -53 -27 -92 -28 -146
-3 -56 25 -85 75 -92 156 -4 52 -1 72 17 108 43 90 149 119 236 66z m337 5
c38 -20 40 -27 15 -57 l-22 -28 -42 17 c-35 14 -45 14 -58 4 -25 -21 -18 -30
48 -60 77 -35 99 -58 101 -108 3 -113 -147 -162 -251 -82 l-21 16 24 32 25 31
40 -20 c46 -24 89 -19 89 10 0 13 -17 26 -59 44 -93 40 -122 97 -86 167 9 17
17 30 18 30 1 0 20 7 42 15 43 16 92 12 137 -11z m-1602 -48 l5 -58 44 61 c44
60 45 61 93 61 26 0 48 -3 48 -6 0 -3 -22 -34 -50 -69 -27 -35 -50 -66 -50
-69 0 -12 93 -166 100 -166 4 0 12 19 19 43 7 23 29 93 48 155 l36 112 53 0
c42 0 54 -4 58 -17 9 -33 99 -318 103 -330 4 -9 -9 -13 -45 -13 -50 0 -50 0
-59 38 -8 36 -10 37 -60 40 l-51 3 -9 -38 -9 -38 -81 -3 -82 -3 -36 66 c-20
36 -40 65 -44 65 -19 0 -31 -29 -31 -77 l0 -53 -45 0 -45 0 0 181 0 180 43 -3
42 -3 5 -59z m628 -118 l2 -178 -45 0 -45 0 0 181 0 180 43 -3 42 -3 3 -177z
m282 164 c45 -22 62 -56 56 -112 -3 -32 -11 -51 -31 -67 l-26 -23 22 -38 c12
-20 31 -52 41 -69 l20 -33 -54 0 -54 0 -29 60 c-19 41 -34 60 -47 60 -15 0
-18 -9 -18 -60 l0 -60 -45 0 -45 0 0 180 0 180 88 0 c63 0 97 -5 122 -18z"/>
<path d="M992 1584 c-62 -31 -106 -89 -122 -160 -9 -40 -49 -171 -67 -221 -3
-8 10 -13 39 -15 l43 -3 3 -56 c4 -72 23 -91 97 -97 l55 -4 0 -49 0 -49 115 0
115 0 0 134 c0 112 3 136 17 147 27 23 63 111 63 155 0 183 -193 300 -358 218z
m259 -60 c50 -48 46 -171 -7 -191 -8 -3 -21 -18 -30 -34 -11 -22 -22 -29 -44
-29 -28 0 -30 2 -30 38 0 56 -30 81 -95 78 -64 -3 -92 7 -107 39 -24 53 71
139 162 147 50 4 120 -18 151 -48z m-296 -160 c19 -20 16 -43 -7 -58 -38 -23
-78 35 -42 61 23 17 29 16 49 -3z"/>
<path d="M754 1345 c-8 -19 12 -36 33 -28 19 7 12 37 -10 41 -9 2 -20 -4 -23
-13z"/>
<path d="M1368 586 c-35 -18 -55 -84 -39 -135 32 -108 135 -79 135 39 0 79
-43 122 -96 96z"/>
<path d="M548 522 l-16 -62 29 0 c33 0 34 5 16 75 l-13 50 -16 -63z"/>
<path d="M1010 556 c0 -43 2 -46 26 -46 38 0 64 18 64 45 0 28 -4 31 -53 40
l-37 7 0 -46z"/>
</g>
</svg>
