<?xml version="1.0" standalone="no"?>
<!DOCTYPE svg PUBLIC "-//W3C//DTD SVG 20010904//EN"
 "http://www.w3.org/TR/2001/REC-SVG-20010904/DTD/svg10.dtd">
<svg version="1.0" xmlns="http://www.w3.org/2000/svg"
 width="284.000000pt" height="284.000000pt" viewBox="0 0 284.000000 284.000000"
 preserveAspectRatio="xMidYMid meet">
<metadata>
Created by potrace 1.11, written by Peter Selinger 2001-2013
</metadata>
<g transform="translate(0.000000,284.000000) scale(0.100000,-0.100000)"
fill="#000000" stroke="none">
<path d="M0 1420 l0 -1420 1420 0 1420 0 0 1420 0 1420 -1420 0 -1420 0 0
-1420z m2420 528 c0 -266 -3 -493 -6 -505 l-6 -23 -479 0 -479 0 0 505 0 505
485 0 485 0 0 -482z m-1468 85 l3 -68 73 -3 c69 -3 72 -4 72 -27 0 -23 -3 -24
-72 -27 l-73 -3 -3 -73 c-3 -73 -3 -73 -30 -70 -26 3 -27 5 -30 76 l-3 72 -69
0 c-68 0 -70 1 -70 25 0 24 2 25 70 25 l70 0 0 63 c0 70 3 77 36 77 21 0 23
-5 26 -67z m478 -1118 l0 -505 -505 0 -505 0 0 505 0 505 505 0 505 0 0 -505z
m450 100 c24 -25 49 -45 54 -45 6 0 32 21 58 47 40 39 49 44 63 33 23 -19 19
-30 -32 -82 l-47 -48 49 -50 c48 -49 48 -50 30 -70 l-19 -21 -51 51 -51 50
-49 -50 -49 -50 -20 20 -20 20 49 50 49 50 -48 49 c-44 44 -47 50 -34 70 7 11
15 21 18 21 3 0 26 -20 50 -45z"/>
<path d="M1883 2080 c-13 -5 -23 -14 -23 -19 0 -5 -3 -16 -6 -25 -3 -9 5 -26
20 -41 l25 -25 -84 0 c-84 0 -85 0 -85 -25 0 -25 1 -25 80 -25 l81 0 -22 -29
c-25 -34 -19 -67 16 -83 54 -25 99 49 58 94 -15 17 -13 18 60 18 75 0 77 1 77
25 0 25 -1 25 -82 25 -77 0 -81 1 -60 16 14 10 22 26 22 44 0 18 -8 34 -22 44
-25 18 -25 18 -55 6z"/>
<path d="M820 915 l0 -25 105 0 105 0 0 25 0 25 -105 0 -105 0 0 -25z"/>
</g>
</svg>
